# xmcd
# 
# Track frame offsets:
#     150
#     17546
#     34658
#     55216
#     74791
#     91610
#     111759
#     133043
#     148335
#     177977
#     202339
#     214480
#     234896
#     264831
#     281614
#     305399
#     324568
# 
# Disc length: 4559
# 
# Revision: 4
# Processed by: cddbd v1.5.2PL0 Copyright (c) Steve Scherf et al.
# Submitted via: fre:ac v1.0.31
# 
DISCID=0011cd11
DTITLE=Alligator Records - Alligator Records 35 X 35 Disc 1
DYEAR=2006
DGENRE=Blues
TTITLE0=She's Gone
TTITLE1=Have a Good Time
TTITLE2=Your Love Is Like a Cancer
TTITLE3=Texas Flood
TTITLE4=I Got What It Takes
TTITLE5=Honey Hush (Talking Woman Blues)
TTITLE6=Voodoo Daddy
TTITLE7=In the Wee Wee Hours
TTITLE8=Are You Losing Your Mind$
TTITLE9=Don't Take Advantage of Me
TTITLE10=High Compression
TTITLE11=Satisfy Susie
TTITLE12=When a Guitar Plays the Blues
TTITLE13=Pride and Joy
TTITLE14=She Winked Her Eye
TTITLE15=Poor Tarzan
TTITLE16=Can't You Lie
EXTD=
EXTT0=
EXTT1=
EXTT2=
EXTT3=
EXTT4=
EXTT5=
EXTT6=
EXTT7=
EXTT8=
EXTT9=
EXTT10=
EXTT11=
EXTT12=
EXTT13=
EXTT14=
EXTT15=
EXTT16=
PLAYORDER=
